<svg xmlns="http://www.w3.org/2000/svg" aria-hidden="true" overflow="hidden" style="position:absolute;width:0;height:0" version="1.1">
  <defs>
    <symbol id="icon-arr-up" viewBox="0 0 32 32">
      <path d="M1.939 32c-.504 0-.989-.194-1.377-.562a1.933 1.933 0 0 1 0-2.735L25.386 3.879H3.878c-1.067 0-1.939-.873-1.939-1.939S2.812.001 3.878.001H30.06c.252 0 .504.058.737.155s.446.233.64.427.33.407.427.64c.097.233.155.465.155.737v26.182c0 1.067-.873 1.939-1.939 1.939s-1.939-.873-1.939-1.939V6.615L3.317 31.439a1.904 1.904 0 0 1-1.377.562z"/>
    </symbol>
    <symbol id="icon-success" viewBox="0 0 32 32">
      <path d="M16 0a16 16 0 1 1 .002 31.999A16 16 0 0 1 16 0zm-1.989 19.154-3.543-3.566c-.137-.137-.274-.229-.434-.297s-.343-.114-.526-.114-.366.046-.526.114c-.16.069-.32.16-.434.297-.251.251-.411.617-.411.96s.137.709.411.96l4.526 4.526c.137.137.274.229.434.297s.343.114.526.114.366-.046.526-.114c.16-.069.32-.16.434-.297l9.371-9.371c.137-.137.229-.274.297-.434s.114-.343.114-.526-.023-.366-.114-.526c-.069-.16-.16-.32-.297-.457s-.274-.229-.457-.297c-.16-.069-.343-.114-.526-.114s-.366.046-.526.114c-.16.069-.32.183-.434.297l-8.411 8.411z"/>
    </symbol>
    <symbol id="icon-close" viewBox="0 0 32 32">
      <path d="M2.286 32a2.343 2.343 0 0 1-1.623-.663 2.277 2.277 0 0 1 0-3.223L28.092.663c.891-.891 2.331-.891 3.223 0s.891 2.331 0 3.223L3.909 31.337A2.246 2.246 0 0 1 2.286 32z"/>
      <path d="M29.714 32a2.343 2.343 0 0 1-1.623-.663L.662 3.908c-.891-.891-.891-2.354 0-3.246s2.354-.891 3.246 0l27.429 27.429a2.277 2.277 0 0 1 0 3.223 2.246 2.246 0 0 1-1.623.663z"/>
    </symbol>
    <symbol id="icon-hourglass" viewBox="0 0 23 32">
      <path d="M20.596 32H2.676A2.678 2.678 0 0 1 0 29.324c0-4.291 1.673-8.335 4.713-11.36l1.775-1.775.204-.204c-.044 0-.102-.073-.204-.175l-1.775-1.775A15.954 15.954 0 0 1 0 2.675 2.669 2.669 0 0 1 2.676-.001h17.935a2.678 2.678 0 0 1 2.676 2.676c0 4.291-1.673 8.335-4.713 11.36l-1.775 1.775c-.102.102-.16.16-.204.218.044 0 .102.058.189.16l1.789 1.789a15.954 15.954 0 0 1 4.713 11.36 2.678 2.678 0 0 1-2.676 2.676zM2.909 29.091h17.455a13.066 13.066 0 0 0-3.855-9.076l-1.775-1.775c-.247-.262-.364-.378-.465-.495a2.924 2.924 0 0 1 0-3.491c.087-.131.204-.247.436-.48l1.789-1.789a13.077 13.077 0 0 0 3.855-9.076H2.909a13.066 13.066 0 0 0 3.855 9.076l1.775 1.775c.247.247.378.378.465.509a2.901 2.901 0 0 1 0 3.476 5.064 5.064 0 0 1-.465.509l-1.775 1.775a13.077 13.077 0 0 0-3.855 9.076zM20.596 2.909z"/>
    </symbol>
    <symbol id="icon-arr-right" viewBox="0 0 41 32">
      <path d="M38.857 18.286H2.286C1.029 18.286 0 17.257 0 16s1.029-2.286 2.286-2.286h36.571c1.257 0 2.286 1.029 2.286 2.286s-1.029 2.286-2.286 2.286z"/>
      <path d="M25.143 32a2.343 2.343 0 0 1-1.623-.663 2.277 2.277 0 0 1 0-3.223l12.091-12.091L23.52 3.909c-.891-.891-.891-2.331 0-3.223s2.331-.891 3.223 0L40.457 14.4a2.277 2.277 0 0 1 0 3.223L26.743 31.337A2.246 2.246 0 0 1 25.12 32z"/>
    </symbol>
    <symbol id="icon-mail" viewBox="0 0 41 32">
      <path d="M35.5 32h-30c-1.46 0-2.84-.58-3.88-1.62S0 27.96 0 26.5v-21c0-1.46.58-2.86 1.62-3.88A5.465 5.465 0 0 1 5.5 0h30c1.48 0 2.86.58 3.88 1.62A5.465 5.465 0 0 1 41 5.5v21c0 1.46-.58 2.84-1.62 3.88S36.96 32 35.5 32zM2 10.24V26.5c0 .94.36 1.82 1.02 2.48S4.56 30 5.5 30h30c.94 0 1.82-.36 2.48-1.02S39 27.44 39 26.5V10.22c-.2.16-.4.3-.62.44l-15 9.24a5.525 5.525 0 0 1-5.76 0l-15-9.22c-.22-.14-.42-.28-.62-.44zm0-4.26c0 .6.16 1.18.44 1.7.3.52.72.96 1.22 1.28l15 9.22c1.1.68 2.56.68 3.68 0l15-9.24c.5-.32.92-.76 1.22-1.28.28-.52.44-1.12.44-1.7v-.48c0-.94-.36-1.82-1.02-2.48s-1.54-1.02-2.48-1.02h-30c-.94 0-1.82.36-2.48 1.02S2 4.54 2 5.48v.48z"/>
    </symbol>
    <symbol id="icon-phone" viewBox="0 0 32 32">
      <path d="M27.707 32h-3.512C10.849 32 0 21.151 0 7.805V4.293a4.24 4.24 0 0 1 1.264-3.028A4.264 4.264 0 0 1 4.292.001h2.139c.562 0 1.124.187 1.561.531s.765.843.905 1.389L10.63 8.82a2.521 2.521 0 0 1-.937 2.638l-2.014 1.514c-.328.25-.453.64-.328.999a18.229 18.229 0 0 0 4.168 6.525 18.105 18.105 0 0 0 6.525 4.168c.343.125.749 0 .999-.328l1.514-2.014a2.533 2.533 0 0 1 2.638-.937l6.899 1.733a2.54 2.54 0 0 1 1.92 2.466v2.139c0 1.139-.453 2.217-1.264 3.028s-1.889 1.264-3.028 1.264zM4.293 1.561a2.715 2.715 0 0 0-2.732 2.732v3.512c0 12.488 10.146 22.634 22.634 22.634h3.512a2.715 2.715 0 0 0 2.732-2.732v-2.139a.97.97 0 0 0-.734-.952l-6.899-1.733a.97.97 0 0 0-1.015.359l-1.514 2.014c-.656.874-1.779 1.233-2.779.859-2.654-.968-5.089-2.544-7.087-4.527a19.533 19.533 0 0 1-4.527-7.087c-.375-.999-.031-2.123.859-2.779l2.014-1.514a.98.98 0 0 0 .359-1.015L7.383 2.294c-.047-.203-.172-.406-.343-.531s-.39-.203-.593-.203H4.308z"/>
    </symbol>
    <symbol id="icon-map" viewBox="0 0 26 32">
      <path d="M12.962 18.633a5.638 5.638 0 0 1-4.002-1.669c-1.069-1.069-1.669-2.495-1.669-4.002s.583-2.933 1.669-4.002c2.139-2.139 5.882-2.139 8.02 0 1.053 1.053 1.669 2.511 1.669 4.002s-.599 2.949-1.669 4.002-2.511 1.669-4.002 1.669zm0-9.722c-1.086 0-2.106.421-2.868 1.183s-1.183 1.782-1.183 2.868.421 2.106 1.183 2.868c1.507 1.507 4.213 1.507 5.736 0 .762-.762 1.183-1.798 1.183-2.868s-.437-2.106-1.183-2.868a4.03 4.03 0 0 0-2.868-1.183z"/>
      <path d="M12.962 32a.813.813 0 0 1-.389-.097C12.055 31.628 0 24.887 0 12.962c0-3.467 1.345-6.724 3.791-9.171S9.494 0 12.962 0s6.724 1.345 9.171 3.791a12.878 12.878 0 0 1 3.791 9.171c0 11.909-12.055 18.649-12.573 18.941a.81.81 0 0 1-.389.097zm0-30.38c-3.03 0-5.882 1.183-8.02 3.322s-3.322 4.99-3.322 8.02c0 9.819 9.3 16.041 11.342 17.288 2.042-1.248 11.342-7.486 11.342-17.288 0-3.03-1.183-5.882-3.322-8.02s-4.99-3.322-8.02-3.322z"/>
    </symbol>
    <symbol id="icon-arr-down" viewBox="0 0 53 32">
      <path d="M26.635 32 1.103 6.507c-1.484-1.484-1.484-3.919 0-5.403s3.919-1.484 5.403 0l20.128 20.128L46.762 1.104c1.484-1.484 3.881-1.484 5.365 0s1.484 3.881 0 5.365L26.595 32.001z"/>
    </symbol>
    <symbol id="icon-user" viewBox="0 0 29 32">
      <path d="M27.2 32c-.88 0-1.6-.72-1.6-1.6 0-2 0-3.12-.208-3.792a4.787 4.787 0 0 0-3.2-3.2C21.504 23.2 20.4 23.2 18.4 23.2h-8c-2 0-3.12 0-3.792.208a4.787 4.787 0 0 0-3.2 3.2C3.2 27.296 3.2 28.4 3.2 30.4c0 .88-.72 1.6-1.6 1.6S0 31.28 0 30.4c0-2.384 0-3.584.352-4.72.784-2.56 2.768-4.56 5.328-5.328 1.136-.336 2.336-.336 4.72-.336h8c2.384 0 3.584 0 4.72.336 2.56.784 4.56 2.768 5.328 5.328.336 1.136.336 2.336.336 4.72 0 .88-.72 1.6-1.6 1.6zM14.4 17.6c-4.848 0-8.8-3.952-8.8-8.8S9.552 0 14.4 0s8.8 3.952 8.8 8.8-3.952 8.8-8.8 8.8zm0-14.4c-3.088 0-5.6 2.512-5.6 5.6s2.512 5.6 5.6 5.6S20 11.888 20 8.8s-2.512-5.6-5.6-5.6z"/>
    </symbol>
    <symbol id="icon-message" viewBox="0 0 32 32">
      <path d="M1.455 32c-.407 0-.785-.175-1.076-.465A1.451 1.451 0 0 1 .03 30.24l.887-4.015c.029-.145.058-.233.058-.305-.015-.029-.058-.16-.131-.364a9.568 9.568 0 0 1-.48-2.996c0-3.825 2.24-7.142 5.455-8.625a15.303 15.303 0 0 1-.029-.829C5.819 5.877 11.725.001 18.983.001s13.164 5.876 13.164 13.091c0 1.6-.291 3.156-.858 4.64-.058.175-.102.262-.116.32 0 .015.015.102.044.218l.582 4.756c.087.669.145 1.193-.116 1.745a2.154 2.154 0 0 1-1.12 1.091c-.553.247-1.076.175-1.731.073l-4.64-.684a2.183 2.183 0 0 1-.276-.044 2.015 2.015 0 0 1-.291.116 13.013 13.013 0 0 1-5.425.815c-1.396 3.433-4.713 5.847-8.567 5.847a8.943 8.943 0 0 1-3.025-.524c-.204-.073-.305-.116-.393-.131 0 0-.087.029-.218.044l-4.364.596h-.204zm4.814-3.549c.233 0 .349 0 .553.058.131.029.335.087.713.218a6.233 6.233 0 0 0 2.095.364c3.505 0 6.356-2.938 6.356-6.545s-2.851-6.545-6.356-6.545-6.356 2.938-6.356 6.545c0 .713.116 1.425.335 2.095.145.465.218.698.233.844.029.218.044.393.029.611 0 .175-.044.364-.131.742l-.436 1.978 2.284-.305c.335-.044.509-.058.655-.058zm12.611-5.178c1.265 0 2.545-.204 3.724-.655a4.63 4.63 0 0 1 .727-.233c.364-.073.465-.116 1.28 0l4.262.625-.538-4.378a5.432 5.432 0 0 1-.058-.669c0-.175.029-.349.073-.553.029-.145.087-.32.218-.684.451-1.178.669-2.4.669-3.636 0-5.615-4.596-10.182-10.255-10.182S8.727 7.475 8.727 13.09v.044c.305-.029.611-.044.916-.044 5.105 0 9.265 4.247 9.265 9.455 0 .247 0 .48-.029.727z"/>
    </symbol>
    <symbol id="icon-brush" viewBox="0 0 32 32">
      <path d="M17.379 21.614a1.51 1.51 0 0 1-1.047-.428l-5.577-5.577a1.47 1.47 0 1 1 2.08-2.08l5.577 5.577a1.47 1.47 0 0 1-1.047 2.508zM4.647 32c-.575 0-1.151 0-1.711-.029-.502 0-.988-.029-1.461-.029-.516 0-.988-.266-1.254-.708s-.295-.988-.059-1.446c.531-1.033.472-2.346.413-3.718-.074-1.844-.162-3.924 1.357-5.459 1.254-1.254 2.921-1.947 4.692-1.947s3.438.693 4.692 1.947 1.947 2.921 1.947 4.692-.693 3.438-1.947 4.692c-1.726 1.726-4.234 2.006-6.683 2.006zm-1.195-2.965c2.228.044 4.633.044 5.798-1.121.693-.693 1.077-1.623 1.077-2.611S9.943 23.4 9.25 22.692c-1.387-1.402-3.821-1.402-5.223 0-.575.575-.575 1.608-.502 3.246.044.974.089 2.021-.074 3.083z"/>
      <path d="M13.19 24.727a4.377 4.377 0 0 1-2.095-.531c-.575-.31-1.003-.752-1.815-1.549-.797-.797-1.239-1.239-1.549-1.815a4.402 4.402 0 0 1 .089-4.352c.325-.561.782-.974 1.608-1.741L23.99 1.269c1.874-1.726 4.751-1.682 6.55.118s1.859 4.677.118 6.55L17.173 22.499c-.767.826-1.195 1.284-1.756 1.608a4.395 4.395 0 0 1-2.242.62zM27.205 2.951c-.428 0-.87.162-1.21.472L11.433 16.908c-.59.546-.974.9-1.077 1.077a1.483 1.483 0 0 0-.03 1.446c.103.192.502.575 1.033 1.121.546.546.929.929 1.121 1.033a1.448 1.448 0 0 0 1.446-.029c.192-.118.546-.487 1.077-1.077L28.488 5.917a1.774 1.774 0 0 0-.044-2.464 1.74 1.74 0 0 0-1.254-.516z"/>
    </symbol>
    <symbol id="icon-arr-long" viewBox="0 0 65 32">
      <path d="M2.172 13.817C.977 13.817 0 14.795 0 15.989s.978 2.172 2.172 2.172v-4.345zm62.371 3.715a2.164 2.164 0 0 0 0-3.063L50.705.631c-.847-.847-2.216-.847-3.063 0s-.847 2.216 0 3.063L59.938 15.99 47.642 28.286c-.847.847-.847 2.216 0 3.063s2.216.847 3.063 0l13.817-13.817zm-62.371.63H63v-4.345H2.172v4.345z"/>
    </symbol>
  </defs>
</svg>
